<?xml version='1.0' encoding='iso-8859-1'?>
<svg version="1.1" xmlns="http://www.w3.org/2000/svg" viewBox="0 0 470 470" xmlns:xlink="http://www.w3.org/1999/xlink" enable-background="new 0 0 470 470">
  <g>
    <path d="m341.712,108.159l-44.936-28.595v-72.064c0-4.142-3.358-7.5-7.5-7.5h-108.552c-4.142,0-7.5,3.358-7.5,7.5v72.063l-44.935,28.595c-13.961,8.884-24.897,28.807-24.897,45.354v258.2c0,32.14 26.148,58.287 58.288,58.287h146.643c32.14,0 58.287-26.147 58.287-58.287v-258.2c-0.001-16.547-10.937-36.469-24.898-45.353zm9.897,303.554c0,23.869-19.418,43.287-43.287,43.287h-146.643c-23.869,0-43.288-19.418-43.288-43.287v-258.2c0-11.334 8.388-26.614 17.95-32.699l46.566-29.633h104.184l46.566,29.633c9.563,6.084 17.95,21.365 17.95,32.699v258.2zm-69.831-335.532h-93.552v-61.181h21.184v38.681c0,4.142 3.358,7.5 7.5,7.5s7.5-3.358 7.5-7.5v-38.681h21.184v38.681c0,4.142 3.358,7.5 7.5,7.5s7.5-3.358 7.5-7.5v-38.681h21.184v61.181z"/>
    <path d="m140.892,191.013h150.717v183.2h-150.717c-4.142,0-7.5,3.358-7.5,7.5 0.002,4.144 3.359,7.5 7.5,7.5h188.217c4.141,0 7.498-3.356 7.5-7.496 0-4.146-3.358-7.504-7.5-7.504h-22.5v-183.2h22.5c4.141,0 7.498-3.356 7.5-7.496 0-4.146-3.358-7.504-7.5-7.504h-188.217c-4.142,0-7.5,3.358-7.5,7.5 0.002,4.144 3.359,7.5 7.5,7.5z"/>
    <path d="m176.041,302.577c1.414,1.912 3.651,3.04 6.03,3.04 2.378,0 4.616-1.128 6.03-3.04l16.899-22.848 16.898,22.847c1.414,1.912 3.651,3.04 6.03,3.04 2.378,0 4.616-1.128 6.03-3.04l22.929-31c2.463-3.33 1.76-8.026-1.57-10.49-3.329-2.462-8.026-1.761-10.49,1.57l-16.899,22.848-16.898-22.848c-1.414-1.912-3.651-3.04-6.03-3.04-2.378,0-4.616,1.128-6.03,3.04l-16.899,22.847-16.898-22.847c-2.463-3.331-7.16-4.034-10.49-1.57-3.33,2.463-4.033,7.159-1.57,10.49l22.928,31.001z"/>
  </g>
</svg>
